<svg xmlns="http://www.w3.org/2000/svg" width="22" height="22" viewBox="0 0 22 22">
    <g data-name="Group 5990">
        <g data-name="Group 6005">
            <path d="M17.18 13.064l3.116-3.116A5.83 5.83 0 1 0 12.052 1.7l-4.5 4.5a5.827 5.827 0 0 0 1.092 9.1l2.407-2.408a2.626 2.626 0 0 1-1.25-.7 2.653 2.653 0 0 1 0-3.747l4.5-4.5A2.652 2.652 0 1 1 18.047 7.7l-1.321 1.321a7.142 7.142 0 0 1 .454 4.043z" data-name="Path 5282"/>
        </g>
        <g data-name="Group 6006">
            <path d="M4.821 8.935l-3.12 3.115a5.83 5.83 0 0 0 8.244 8.244l4.5-4.5a5.827 5.827 0 0 0-1.091-9.1l-2.407 2.411a2.644 2.644 0 0 1 1.25 4.445l-4.5 4.5a2.65 2.65 0 0 1-3.747-3.747l1.321-1.321a7.139 7.139 0 0 1-.45-4.047z" data-name="Path 5283"/>
        </g>
    </g>
</svg>
